<?xml version="1.0" standalone="no"?>
<!DOCTYPE svg PUBLIC "-//W3C//DTD SVG 20010904//EN"
 "http://www.w3.org/TR/2001/REC-SVG-20010904/DTD/svg10.dtd">
<svg version="1.0" xmlns="http://www.w3.org/2000/svg"
 width="430.000000pt" height="404.000000pt" viewBox="0 0 430.000000 404.000000"
 preserveAspectRatio="xMidYMid meet">

<g transform="translate(0.000000,404.000000) scale(0.100000,-0.100000)"
fill="#000000" stroke="none">
<path d="M2465 2530 c-281 -44 -487 -234 -541 -500 -32 -160 3 -353 87 -479
103 -154 265 -244 488 -271 100 -13 243 -1 340 26 145 42 279 152 344 283 44
89 47 118 11 131 -14 6 -93 10 -175 10 -168 0 -144 9 -226 -88 -43 -51 -75
-69 -146 -83 -71 -13 -146 3 -202 41 -48 33 -99 123 -108 193 l-6 37 440 0
c284 0 447 4 460 10 17 9 19 22 19 98 0 172 -52 304 -160 412 -73 74 -186 137
-295 165 -74 20 -249 27 -330 15z m210 -271 c52 -14 126 -90 143 -145 23 -80
41 -74 -233 -74 -272 0 -256 -5 -230 71 28 78 77 126 155 150 38 11 120 10
165 -2z"/>
</g>
</svg>
